<svg width="49" height="43" viewBox="0 0 49 43" fill="none" xmlns="http://www.w3.org/2000/svg">
<path d="M23.3467 0.423876C24.0639 0.0253747 24.936 0.0253747 25.6533 0.423876L47.0283 12.2989C47.7824 12.7178 48.25 13.5125 48.25 14.375C48.25 15.2375 47.7824 16.0323 47.0283 16.4511L25.6533 28.3262C24.936 28.7245 24.0639 28.7245 23.3467 28.3262L17.375 25.0086V27.7254L22.1932 30.4022C23.6279 31.1993 25.3721 31.1993 26.8068 30.4022L41.956 21.9859C42.2586 21.8178 42.6338 22.0197 42.6602 22.3647L43.3371 31.1629C43.5171 33.5028 41.9703 35.5923 39.7406 36.164C37.9361 36.6271 35.3792 37.327 33.643 37.9749C31.4827 38.7815 28.8828 40.3898 27.251 41.4818C25.5901 42.5929 23.4103 42.5929 21.7495 41.4818C20.6055 40.7164 18.9856 39.697 17.375 38.8781V40.5C17.375 41.8117 16.3117 42.875 15 42.875C13.6883 42.875 12.625 41.8117 12.625 40.5V37.0852C11.4495 36.739 10.2429 36.4164 9.25953 36.1642C7.03007 35.5923 5.48326 33.5028 5.66323 31.1629L6.34001 22.365C6.36657 22.0197 6.74163 21.818 7.0443 21.9862L12.625 25.0865V22.6875C12.625 22.5842 12.6317 22.4816 12.6449 22.3807L1.9716 16.4511C1.21761 16.0323 0.75 15.2375 0.75 14.375C0.75 13.5125 1.21761 12.7178 1.9716 12.2989L23.3467 0.423876Z" fill="#3A6289"/>
</svg>
