<svg width="57" height="57" viewBox="0 0 57 57" fill="none" xmlns="http://www.w3.org/2000/svg">
<path d="M23.1562 24.9375H30.2812C31.35 24.9375 32.0625 24.225 32.0625 23.1562C32.0625 22.0875 31.35 21.375 30.2812 21.375H28.5C28.5 20.3062 29.2125 19.5938 30.2812 19.5938H33.8438C36.8719 19.5938 39.1875 17.2781 39.1875 14.25C39.1875 11.2219 36.8719 8.90625 33.8438 8.90625H30.2812C29.2125 8.90625 28.5 8.19375 28.5 7.125V3.5625C28.5 2.49375 27.7875 1.78125 26.7188 1.78125C25.65 1.78125 24.9375 2.49375 24.9375 3.5625V7.125C24.9375 10.1531 27.2531 12.4688 30.2812 12.4688H33.8438C34.9125 12.4688 35.625 13.1812 35.625 14.25C35.625 15.3188 34.9125 16.0312 33.8438 16.0312H30.2812C27.2531 16.0312 24.9375 18.3469 24.9375 21.375H23.1562C22.0875 21.375 21.375 22.0875 21.375 23.1562C21.375 24.225 22.0875 24.9375 23.1562 24.9375Z" fill="#3A6289"/>
<path d="M50.2315 32.5969C47.9159 30.1031 44.5315 28.5 40.969 28.5H16.5659C9.61899 28.5 3.91899 33.8437 3.74086 40.6125C3.56274 43.9969 4.80961 47.2031 7.30336 49.6969C9.44086 52.0125 12.6471 53.4375 16.0315 53.4375C21.3752 53.4375 26.0065 50.0531 27.7877 45.0656C27.9659 44.3531 29.0346 44.3531 29.2127 45.0656C31.1721 50.7656 36.8721 54.15 42.9284 53.2594C48.2721 52.3687 52.7252 47.9156 53.4377 42.3937C53.794 38.8312 52.7252 35.2687 50.2315 32.5969ZM19.594 42.75H17.8127V44.5312C17.8127 45.6 17.1002 46.3125 16.0315 46.3125C14.9627 46.3125 14.2502 45.6 14.2502 44.5312V42.75H12.469C11.4002 42.75 10.6877 42.0375 10.6877 40.9688C10.6877 39.9 11.4002 39.1875 12.469 39.1875H14.2502V37.4062C14.2502 36.3375 14.9627 35.625 16.0315 35.625C17.1002 35.625 17.8127 36.3375 17.8127 37.4062V39.1875H19.594C20.6627 39.1875 21.3752 39.9 21.3752 40.9688C21.3752 42.0375 20.6627 42.75 19.594 42.75ZM39.3659 36.6938C39.3659 36.5156 39.544 36.3375 39.7221 36.1594C40.4346 35.4469 41.5034 35.4469 42.2159 36.1594C42.394 36.3375 42.5721 36.5156 42.5721 36.6938C42.5721 36.8719 42.7502 37.2281 42.7502 37.4062C42.7502 37.5844 42.7502 37.9406 42.5721 38.1187C42.394 38.2969 42.394 38.475 42.2159 38.6531C41.8596 39.0094 41.5034 39.1875 40.969 39.1875C40.4346 39.1875 40.0784 39.0094 39.7221 38.6531C39.544 38.475 39.3659 38.2969 39.3659 38.1187C39.3659 37.9406 39.1877 37.5844 39.1877 37.4062C39.1877 37.2281 39.1877 36.8719 39.3659 36.6938ZM38.6534 42.2156C38.2971 42.5719 37.9409 42.75 37.4065 42.75C36.8721 42.75 36.5159 42.5719 36.1596 42.2156C35.9815 42.0375 35.8034 41.8594 35.8034 41.6812C35.8034 41.5031 35.6252 41.1469 35.6252 40.9688C35.6252 40.7906 35.6252 40.4344 35.8034 40.2563C35.8034 40.0781 35.9815 39.9 36.1596 39.7219C36.5159 39.3656 37.2284 39.1875 37.7627 39.1875C37.9409 39.1875 37.9409 39.1875 38.119 39.3656C38.2971 39.3656 38.2971 39.3656 38.4752 39.5438C38.6534 39.5438 38.6534 39.7219 38.8315 39.7219C39.0096 39.9 39.1877 40.0781 39.1877 40.2563C39.1877 40.4344 39.3659 40.7906 39.3659 40.9688C39.3659 41.1469 39.3659 41.5031 39.1877 41.6812C39.0096 41.8594 38.8315 42.0375 38.6534 42.2156ZM42.5721 45.2437C42.5721 45.4219 42.394 45.6 42.2159 45.7781C41.8596 46.1344 41.5034 46.3125 40.969 46.3125C40.4346 46.3125 40.0784 46.1344 39.7221 45.7781C39.544 45.6 39.3659 45.4219 39.3659 45.2437C39.3659 45.0656 39.1877 44.7094 39.1877 44.5312C39.1877 44.3531 39.1877 43.9969 39.3659 43.8188C39.3659 43.6406 39.544 43.4625 39.7221 43.2844C40.0784 42.9281 40.7909 42.75 41.3252 42.75C41.5034 42.75 41.5034 42.75 41.6815 42.9281C41.8596 42.9281 41.8596 42.9281 42.0377 43.1063C42.2159 43.1063 42.2159 43.2844 42.394 43.2844C42.5721 43.4625 42.7502 43.6406 42.7502 43.8188C42.7502 43.9969 42.9284 44.3531 42.9284 44.5312C42.9284 44.7094 42.7502 45.0656 42.5721 45.2437ZM46.1346 41.6812C46.1346 41.8594 45.9565 42.0375 45.7784 42.2156C45.4221 42.5719 45.0659 42.75 44.5315 42.75C43.9971 42.75 43.6409 42.5719 43.2846 42.2156C43.1065 42.0375 42.9284 41.8594 42.9284 41.6812C42.9284 41.5031 42.7502 41.1469 42.7502 40.9688C42.7502 40.7906 42.7502 40.4344 42.9284 40.2563C42.9284 40.0781 43.1065 39.9 43.2846 39.7219C43.6409 39.3656 44.3534 39.1875 44.8877 39.1875C45.0659 39.1875 45.0659 39.1875 45.244 39.3656C45.4221 39.3656 45.4221 39.3656 45.6002 39.5438C45.6002 39.5438 45.7784 39.7219 45.9565 39.7219C46.1346 39.9 46.3127 40.0781 46.3127 40.2563C46.3127 40.4344 46.4909 40.7906 46.4909 40.9688C46.4909 41.1469 46.3127 41.5031 46.1346 41.6812Z" fill="#3A6289"/>
</svg>
