<svg width="54" height="54" viewBox="0 0 54 54" fill="none" xmlns="http://www.w3.org/2000/svg">
<g clip-path="url(#clip0_136_178)">
<path d="M16.5 24.75L15 29.4H18L16.5 24.75Z" fill="black"/>
<path d="M45.4502 4.5H21.4502V12H27.4502V15H7.9502C5.4002 15 3.4502 16.95 3.4502 19.5V36C3.4502 38.55 5.4002 40.5 7.9502 40.5H9.45019V48.15L18.9002 40.5H28.9502V30H45.4502C48.0002 30 49.9502 28.05 49.9502 25.5V9C49.9502 6.45 48.0002 4.5 45.4502 4.5ZM19.6502 34.35L18.9002 31.95H14.2502L13.3502 34.35H9.75019L14.7002 21H18.3002L23.2502 34.35H19.6502ZM42.4502 22.5V25.5C40.5002 25.5 38.4002 24.9 36.6002 24C34.8002 24.9 32.7002 25.35 30.6002 25.5L30.4502 22.5C31.5002 22.5 32.5502 22.35 33.6002 22.05C32.2502 20.7 31.3502 19.05 30.9002 17.25H34.0502C34.5002 18.6 35.4002 19.65 36.4502 20.55C38.1002 19.2 39.1502 17.25 39.3002 15H30.3002V12H34.8002V9H37.8002V12H42.7502L42.9002 13.5C43.0502 16.65 41.8502 19.8 39.6002 22.05C40.6502 22.35 41.5502 22.5 42.4502 22.5Z" fill="#3A6289"/>
</g>
<defs>
<clipPath id="clip0_136_178">
<rect width="54" height="54" fill="white"/>
</clipPath>
</defs>
</svg>
