<svg width="48" height="48" viewBox="0 0 48 48" fill="none" xmlns="http://www.w3.org/2000/svg">
<path d="M24 0.00115967C10.7466 0.00115967 0 10.7456 0 24.0001C0 37.2546 10.7455 47.9991 24 47.9991C37.2556 47.9991 48 37.2546 48 24.0001C48 10.7456 37.2556 0.00115967 24 0.00115967ZM24 7.17712C28.3855 7.17712 31.9392 10.7319 31.9392 15.1153C31.9392 19.4997 28.3855 23.0534 24 23.0534C19.6166 23.0534 16.0629 19.4997 16.0629 15.1153C16.0629 10.7319 19.6166 7.17712 24 7.17712ZM23.9947 41.7244C19.6208 41.7244 15.6149 40.1315 12.525 37.495C11.7723 36.853 11.338 35.9116 11.338 34.9238C11.338 30.4782 14.936 26.9202 19.3826 26.9202H28.6195C33.0672 26.9202 36.6515 30.4782 36.6515 34.9238C36.6515 35.9126 36.2193 36.8519 35.4655 37.4939C32.3767 40.1315 28.3697 41.7244 23.9947 41.7244Z" fill="#3A6289"/>
</svg>
