<svg width="45" height="45" viewBox="0 0 45 45" fill="none" xmlns="http://www.w3.org/2000/svg">
<g clip-path="url(#clip0_136_284)">
<path d="M3.04939 1.87341C2.50225 1.87341 2.05957 2.37451 2.05957 2.99312C2.05957 4.86528 2.05957 8.61613 2.05957 10.4874C2.05957 11.106 2.50233 11.6071 3.04939 11.6071C3.59489 11.6071 4.03851 11.106 4.03851 10.4874C4.03851 9.75388 4.03851 8.72867 4.03851 7.64264C4.11403 7.64264 4.79509 7.64264 5.91471 7.64264C5.99856 7.97939 6.1702 8.29819 6.43969 8.55608L17.8245 19.4777V26.0028H11.5616C10.2111 26.0028 9.11439 27.0986 9.11439 28.4491V40.6785C9.11439 42.0298 10.2102 43.1257 11.5616 43.1257C12.9121 43.1257 14.0063 42.0298 14.0063 40.6785V30.8963H22.3452L33.4467 42.3798C33.9265 42.8759 34.5648 43.1265 35.2056 43.1265C35.8184 43.1265 36.4304 42.8982 36.9052 42.4381C37.8769 41.4991 37.9024 39.9515 36.9636 38.9796L25.8282 27.4609V20.0693C25.9917 19.9838 26.1494 19.8804 26.2875 19.7432L38.2457 7.85302C38.3114 7.78731 38.364 7.71506 38.4182 7.64273C39.8098 7.64273 40.7176 7.64273 40.9361 7.64273C40.9361 8.72876 40.9361 9.75311 40.9361 10.4884C40.9361 11.1061 41.3789 11.6072 41.9252 11.6072C42.4715 11.6072 42.9151 11.1061 42.9151 10.4875C42.9151 8.61536 42.9151 4.86451 42.9151 2.99321C42.9151 2.37459 42.4715 1.8735 41.9252 1.8735C41.379 1.8735 40.9361 2.37459 40.9361 2.99321C40.9361 3.72762 40.9361 4.75197 40.9361 5.838C40.7315 5.838 39.9232 5.838 38.682 5.838C38.59 5.59239 38.4495 5.3607 38.2523 5.16278C37.5114 4.41771 36.3063 4.41522 35.5628 5.15539L34.876 5.838C27.6684 5.838 15.8227 5.838 9.10124 5.838L9.07247 5.81094C8.32577 5.09457 7.14687 5.11183 6.41744 5.838C4.99792 5.838 4.12382 5.838 4.03757 5.838C4.03757 4.75197 4.03757 3.72762 4.03757 2.99235C4.03843 2.37373 3.59481 1.87341 3.04939 1.87341ZM18.7972 7.64273C18.1975 8.39681 17.8245 9.33826 17.8245 10.3766C17.8245 12.8173 19.8019 14.7929 22.24 14.7929C24.6807 14.7929 26.657 12.8172 26.657 10.3766C26.657 9.33826 26.2841 8.39604 25.6844 7.64273C28.305 7.64273 30.8359 7.64273 33.0614 7.64273L24.5713 16.0842H19.7821L10.9833 7.64273C13.2842 7.64273 15.9795 7.64273 18.7972 7.64273Z" fill="#3A6289"/>
<path d="M44.2541 10.1129C44.6664 10.1129 45 9.77939 45 9.36696C45 8.06985 45 5.41233 44.9991 4.11523C44.9991 3.70202 44.6655 3.36853 44.2532 3.36853C44.222 3.36853 44.19 3.36853 44.1571 3.36853C43.7455 3.36853 43.4111 3.70125 43.4111 4.11446C43.4111 5.41156 43.4111 8.06985 43.4111 9.36704C43.4111 9.78025 43.7455 10.1137 44.1571 10.1137C44.19 10.1129 44.222 10.1129 44.2541 10.1129Z" fill="#3A6289"/>
<path d="M0.842829 10.1129C1.25518 10.1129 1.58876 9.77939 1.58876 9.36696C1.58876 8.06985 1.58876 5.41233 1.58876 4.11523C1.58876 3.70202 1.25527 3.36853 0.842829 3.36853C0.810786 3.36853 0.778743 3.36853 0.745068 3.36853C0.334348 3.36853 0 3.70125 0 4.11446C0 5.41156 0 8.06985 0 9.36704C0 9.78025 0.334348 10.1137 0.745927 10.1137C0.778743 10.1129 0.810786 10.1129 0.842829 10.1129Z" fill="#3A6289"/>
</g>
<defs>
<clipPath id="clip0_136_284">
<rect width="45" height="45" fill="white"/>
</clipPath>
</defs>
</svg>
